<?xml version="1.0" encoding="UTF-8" standalone="no"?>
<!DOCTYPE svg PUBLIC "-//W3C//DTD SVG 1.1//EN"
 "http://www.w3.org/Graphics/SVG/1.1/DTD/svg11.dtd">
<!-- Generated by graphviz version 2.40.1 (20161225.0304)
 -->
<!-- Title: %3 Pages: 1 -->
<svg width="2786pt" height="933pt"
 viewBox="0.00 0.00 2785.95 933.07" xmlns="http://www.w3.org/2000/svg" xmlns:xlink="http://www.w3.org/1999/xlink">
<g id="graph0" class="graph" transform="scale(1 1) rotate(0) translate(4 929.075)">
<title>%3</title>
<polygon fill="#ffffff" stroke="transparent" points="-4,4 -4,-929.075 2781.9456,-929.075 2781.9456,4 -4,4"/>
<!-- thermostat_regulate_temperature_manage_regulator_interface -->
<g id="node1" class="node">
<title>thermostat_regulate_temperature_manage_regulator_interface</title>
<path fill="none" stroke="#000000" d="M1356.4728,-512.6407C1356.4728,-512.6407 480.4728,-512.6407 480.4728,-512.6407 474.4728,-512.6407 468.4728,-506.6407 468.4728,-500.6407 468.4728,-500.6407 468.4728,-488.6407 468.4728,-488.6407 468.4728,-482.6407 474.4728,-476.6407 480.4728,-476.6407 480.4728,-476.6407 1356.4728,-476.6407 1356.4728,-476.6407 1362.4728,-476.6407 1368.4728,-482.6407 1368.4728,-488.6407 1368.4728,-488.6407 1368.4728,-500.6407 1368.4728,-500.6407 1368.4728,-506.6407 1362.4728,-512.6407 1356.4728,-512.6407"/>
<text text-anchor="middle" x="918.4728" y="-490.9407" font-family="Times,serif" font-size="14.00" fill="#000000">thermostat_regulate_temperature_manage_regulator_interface::Manage_Regulator_Interface_impl_thermostat_regulate_temperature_manage_regulator_interface</text>
</g>
<!-- thermostat_regulate_temperature_manage_heat_source -->
<g id="node2" class="node">
<title>thermostat_regulate_temperature_manage_heat_source</title>
<path fill="none" stroke="#000000" d="M2067.9728,-210C2067.9728,-210 1306.9728,-210 1306.9728,-210 1300.9728,-210 1294.9728,-204 1294.9728,-198 1294.9728,-198 1294.9728,-186 1294.9728,-186 1294.9728,-180 1300.9728,-174 1306.9728,-174 1306.9728,-174 2067.9728,-174 2067.9728,-174 2073.9728,-174 2079.9728,-180 2079.9728,-186 2079.9728,-186 2079.9728,-198 2079.9728,-198 2079.9728,-204 2073.9728,-210 2067.9728,-210"/>
<text text-anchor="middle" x="1687.4728" y="-188.3" font-family="Times,serif" font-size="14.00" fill="#000000">thermostat_regulate_temperature_manage_heat_source::Manage_Heat_Source_impl_thermostat_regulate_temperature_manage_heat_source</text>
</g>
<!-- thermostat_regulate_temperature_manage_regulator_interface&#45;&gt;thermostat_regulate_temperature_manage_heat_source -->
<g id="edge16" class="edge">
<title>thermostat_regulate_temperature_manage_regulator_interface&#45;&gt;thermostat_regulate_temperature_manage_heat_source</title>
<path fill="none" stroke="#000000" d="M922.4719,-466.4538C932.5994,-407.523 965.4284,-273.0216 1058.4728,-228 1082.0441,-216.5945 1175.9934,-208.6845 1284.3706,-203.2508"/>
<polygon fill="none" stroke="#000000" points="924.784,-477.18 916.8873,-475.8988 918.1685,-468.0021 926.0652,-469.2833 924.784,-477.18"/>
<polyline fill="none" stroke="#000000" points="922.1168,-468.6427 922.4371,-466.6685 "/>
<polygon fill="none" stroke="#000000" points="1294.3645,-198.754 1294.7579,-206.7443 1286.7676,-207.1377 1286.3742,-199.1474 1294.3645,-198.754"/>
<polyline fill="none" stroke="#000000" points="1286.5709,-203.1426 1284.5733,-203.2409 "/>
<text text-anchor="middle" x="1011.4728" y="-296.3" font-family="Times,serif" font-size="14.00" fill="#000000">conn11</text>
</g>
<!-- thermostat_regulate_temperature_manage_regulator_interface&#45;&gt;thermostat_regulate_temperature_manage_heat_source -->
<g id="edge17" class="edge">
<title>thermostat_regulate_temperature_manage_regulator_interface&#45;&gt;thermostat_regulate_temperature_manage_heat_source</title>
<path fill="none" stroke="#000000" d="M931.3185,-467.4275C954.8765,-420.832 1009.7132,-326.5011 1086.4728,-282 1145.6325,-247.7023 1298.9821,-225.0623 1435.9622,-211.0681"/>
<polygon fill="none" stroke="#000000" points="930.3539,-478.3863 923.1852,-474.8353 926.7362,-467.6666 933.9049,-471.2176 930.3539,-478.3863"/>
<polyline fill="none" stroke="#000000" points="930.3206,-469.4421 931.2083,-467.6499 "/>
<polygon fill="none" stroke="#000000" points="1445.8119,-206.0539 1446.6152,-214.0134 1438.6556,-214.8167 1437.8523,-206.8571 1445.8119,-206.0539"/>
<polyline fill="none" stroke="#000000" points="1438.254,-210.8369 1436.2641,-211.0377 "/>
<text text-anchor="middle" x="1106.4728" y="-296.3" font-family="Times,serif" font-size="14.00" fill="#000000">conn12</text>
</g>
<!-- thermostat_regulate_temperature_manage_regulator_mode -->
<g id="node3" class="node">
<title>thermostat_regulate_temperature_manage_regulator_mode</title>
<path fill="none" stroke="#000000" d="M2045.9728,-318C2045.9728,-318 1218.9728,-318 1218.9728,-318 1212.9728,-318 1206.9728,-312 1206.9728,-306 1206.9728,-306 1206.9728,-294 1206.9728,-294 1206.9728,-288 1212.9728,-282 1218.9728,-282 1218.9728,-282 2045.9728,-282 2045.9728,-282 2051.9728,-282 2057.9728,-288 2057.9728,-294 2057.9728,-294 2057.9728,-306 2057.9728,-306 2057.9728,-312 2051.9728,-318 2045.9728,-318"/>
<text text-anchor="middle" x="1632.4728" y="-296.3" font-family="Times,serif" font-size="14.00" fill="#000000">thermostat_regulate_temperature_manage_regulator_mode::Manage_Regulator_Mode_impl_thermostat_regulate_temperature_manage_regulator_mode</text>
</g>
<!-- thermostat_regulate_temperature_manage_regulator_interface&#45;&gt;thermostat_regulate_temperature_manage_regulator_mode -->
<g id="edge18" class="edge">
<title>thermostat_regulate_temperature_manage_regulator_interface&#45;&gt;thermostat_regulate_temperature_manage_regulator_mode</title>
<path fill="none" stroke="#000000" d="M954.4916,-470.9353C1011.4569,-434.7917 1127.0335,-366.8558 1235.4728,-336 1258.5342,-329.438 1298.1962,-323.7909 1343.7828,-319.0441"/>
<polygon fill="none" stroke="#000000" points="948.0171,-479.8226 943.7076,-473.0825 950.4477,-468.7731 954.7572,-475.5132 948.0171,-479.8226"/>
<polyline fill="none" stroke="#000000" points="952.6024,-472.1431 954.2875,-471.0658 "/>
<polygon fill="none" stroke="#000000" points="1353.5041,-314.0342 1354.314,-321.9932 1346.3551,-322.8031 1345.5452,-314.8441 1353.5041,-314.0342"/>
<polyline fill="none" stroke="#000000" points="1345.9501,-318.8236 1343.9604,-319.0261 "/>
<text text-anchor="middle" x="1255.4728" y="-350.3" font-family="Times,serif" font-size="14.00" fill="#000000">conn13</text>
</g>
<!-- operator_interface_oip_oit -->
<g id="node7" class="node">
<title>operator_interface_oip_oit</title>
<path fill="none" stroke="#000000" d="M947.9728,-318C947.9728,-318 480.9728,-318 480.9728,-318 474.9728,-318 468.9728,-312 468.9728,-306 468.9728,-306 468.9728,-294 468.9728,-294 468.9728,-288 474.9728,-282 480.9728,-282 480.9728,-282 947.9728,-282 947.9728,-282 953.9728,-282 959.9728,-288 959.9728,-294 959.9728,-294 959.9728,-306 959.9728,-306 959.9728,-312 953.9728,-318 947.9728,-318"/>
<text text-anchor="middle" x="714.4728" y="-296.3" font-family="Times,serif" font-size="14.00" fill="#000000">operator_interface_oip_oit::operator_interface_thread_impl_operator_interface_oip_oit</text>
</g>
<!-- thermostat_regulate_temperature_manage_regulator_interface&#45;&gt;operator_interface_oip_oit -->
<g id="edge1" class="edge">
<title>thermostat_regulate_temperature_manage_regulator_interface&#45;&gt;operator_interface_oip_oit</title>
<path fill="none" stroke="#000000" d="M907.3735,-467.2192C891.824,-432.07 860.339,-371.4482 815.4728,-336 808.8063,-330.7329 801.3066,-326.1996 793.4826,-322.3059"/>
<polygon fill="none" stroke="#000000" points="915.0083,-474.8331 907.6609,-477.9979 904.4961,-470.6505 911.8436,-467.4857 915.0083,-474.8331"/>
<polyline fill="none" stroke="#000000" points="908.1699,-469.0681 907.3787,-467.2312 "/>
<polygon fill="none" stroke="#000000" points="782.5068,-321.6566 785.8522,-314.3897 793.1192,-317.7351 789.7738,-325.0021 782.5068,-321.6566"/>
<polyline fill="none" stroke="#000000" points="791.4465,-321.3686 793.2632,-322.2049 "/>
<text text-anchor="middle" x="865.4728" y="-350.3" font-family="Times,serif" font-size="14.00" fill="#000000">conn1</text>
</g>
<!-- thermostat_regulate_temperature_manage_regulator_interface&#45;&gt;operator_interface_oip_oit -->
<g id="edge2" class="edge">
<title>thermostat_regulate_temperature_manage_regulator_interface&#45;&gt;operator_interface_oip_oit</title>
<path fill="none" stroke="#000000" d="M921.3588,-466.362C923.2951,-430.8815 920.7363,-370.5139 886.4728,-336 880.5662,-330.0502 869.2679,-324.9959 855.1653,-320.7267"/>
<polygon fill="none" stroke="#000000" points="924.6338,-476.799 916.6536,-476.2371 917.2156,-468.2568 925.1958,-468.8188 924.6338,-476.799"/>
<polyline fill="none" stroke="#000000" points="921.2057,-468.5378 921.3462,-466.5427 "/>
<polygon fill="none" stroke="#000000" points="844.4453,-321.8856 846.5974,-314.1805 854.3025,-316.3326 852.1504,-324.0377 844.4453,-321.8856"/>
<polyline fill="none" stroke="#000000" points="853.2265,-320.1852 855.1527,-320.7232 "/>
<text text-anchor="middle" x="924.4728" y="-350.3" font-family="Times,serif" font-size="14.00" fill="#000000">conn2</text>
</g>
<!-- heat_source_cpi_heat_controller -->
<g id="node9" class="node">
<title>heat_source_cpi_heat_controller</title>
<path fill="none" stroke="#000000" d="M2275.9728,-123C2275.9728,-123 1814.9728,-123 1814.9728,-123 1808.9728,-123 1802.9728,-117 1802.9728,-111 1802.9728,-111 1802.9728,-99 1802.9728,-99 1802.9728,-93 1808.9728,-87 1814.9728,-87 1814.9728,-87 2275.9728,-87 2275.9728,-87 2281.9728,-87 2287.9728,-93 2287.9728,-99 2287.9728,-99 2287.9728,-111 2287.9728,-111 2287.9728,-117 2281.9728,-123 2275.9728,-123"/>
<text text-anchor="middle" x="2045.4728" y="-101.3" font-family="Times,serif" font-size="14.00" fill="#000000">heat_source_cpi_heat_controller::Heat_Source_impl_heat_source_cpi_heat_controller</text>
</g>
<!-- thermostat_regulate_temperature_manage_heat_source&#45;&gt;heat_source_cpi_heat_controller -->
<g id="edge3" class="edge">
<title>thermostat_regulate_temperature_manage_heat_source&#45;&gt;heat_source_cpi_heat_controller</title>
<path fill="none" stroke="#000000" d="M1771.5757,-171.5616C1828.8703,-157.638 1904.4119,-139.2802 1961.6474,-125.371"/>
<polygon fill="none" stroke="#000000" points="1762.5952,-177.8604 1760.706,-170.0867 1768.4798,-168.1975 1770.369,-175.9712 1762.5952,-177.8604"/>
<polyline fill="none" stroke="#000000" points="1769.4244,-172.0843 1771.3678,-171.612 "/>
<polygon fill="none" stroke="#000000" points="1970.4454,-119.1165 1972.3346,-126.8902 1964.5609,-128.7794 1962.6716,-121.0057 1970.4454,-119.1165"/>
<polyline fill="none" stroke="#000000" points="1963.6163,-124.8926 1961.6728,-125.3649 "/>
<text text-anchor="middle" x="1904.4728" y="-144.8" font-family="Times,serif" font-size="14.00" fill="#000000">conn3</text>
</g>
<!-- thermostat_regulate_temperature_manage_regulator_mode&#45;&gt;thermostat_regulate_temperature_manage_regulator_interface -->
<g id="edge19" class="edge">
<title>thermostat_regulate_temperature_manage_regulator_mode&#45;&gt;thermostat_regulate_temperature_manage_regulator_interface</title>
<path fill="none" stroke="#000000" d="M1545.4925,-320.4478C1525.109,-325.3968 1503.4988,-330.7712 1483.4728,-336 1305.1893,-382.5501 1096.8223,-442.5041 989.8564,-473.6907"/>
<polygon fill="none" stroke="#000000" points="1554.4479,-314.1671 1556.3283,-321.943 1548.5524,-323.8233 1546.672,-316.0474 1554.4479,-314.1671"/>
<polyline fill="none" stroke="#000000" points="1547.6122,-319.9353 1545.6682,-320.4054 "/>
<polygon fill="none" stroke="#000000" points="981.2594,-480.366 979.0185,-472.6863 986.6982,-470.4454 988.9391,-478.1251 981.2594,-480.366"/>
<polyline fill="none" stroke="#000000" points="987.8187,-474.2853 989.7386,-473.725 "/>
<text text-anchor="middle" x="1503.4728" y="-350.3" font-family="Times,serif" font-size="14.00" fill="#000000">conn14</text>
</g>
<!-- thermostat_regulate_temperature_manage_regulator_mode&#45;&gt;thermostat_regulate_temperature_manage_heat_source -->
<g id="edge20" class="edge">
<title>thermostat_regulate_temperature_manage_regulator_mode&#45;&gt;thermostat_regulate_temperature_manage_heat_source</title>
<path fill="none" stroke="#000000" d="M1646.4182,-272.6162C1654.7701,-256.2162 1665.3463,-235.4485 1673.6722,-219.0993"/>
<polygon fill="none" stroke="#000000" points="1645.3672,-283.4945 1638.2384,-279.864 1641.8689,-272.7352 1648.9977,-276.3657 1645.3672,-283.4945"/>
<polyline fill="none" stroke="#000000" points="1645.4333,-274.5504 1646.3409,-272.7682 "/>
<polygon fill="none" stroke="#000000" points="1674.7162,-208.2349 1681.845,-211.8654 1678.2145,-218.9942 1671.0857,-215.3638 1674.7162,-208.2349"/>
<polyline fill="none" stroke="#000000" points="1674.6501,-217.179 1673.7425,-218.9612 "/>
<text text-anchor="middle" x="1687.4728" y="-242.3" font-family="Times,serif" font-size="14.00" fill="#000000">conn14</text>
</g>
<!-- thermostat_monitor_temperature_manage_alarm -->
<g id="node4" class="node">
<title>thermostat_monitor_temperature_manage_alarm</title>
<path fill="none" stroke="#000000" d="M705.9728,-36C705.9728,-36 44.9728,-36 44.9728,-36 38.9728,-36 32.9728,-30 32.9728,-24 32.9728,-24 32.9728,-12 32.9728,-12 32.9728,-6 38.9728,0 44.9728,0 44.9728,0 705.9728,0 705.9728,0 711.9728,0 717.9728,-6 717.9728,-12 717.9728,-12 717.9728,-24 717.9728,-24 717.9728,-30 711.9728,-36 705.9728,-36"/>
<text text-anchor="middle" x="375.4728" y="-14.3" font-family="Times,serif" font-size="14.00" fill="#000000">thermostat_monitor_temperature_manage_alarm::Manage_Alarm_impl_thermostat_monitor_temperature_manage_alarm</text>
</g>
<!-- thermostat_monitor_temperature_manage_alarm&#45;&gt;operator_interface_oip_oit -->
<g id="edge4" class="edge">
<title>thermostat_monitor_temperature_manage_alarm&#45;&gt;operator_interface_oip_oit</title>
<path fill="none" stroke="#000000" d="M728.0993,-29.2928C896.6838,-38.7302 1067.1025,-55.9052 1090.4728,-87 1123.5937,-131.0683 1112.2046,-169.8089 1074.4728,-210 1072.06,-212.5701 904.5244,-253.7302 798.8796,-279.4875"/>
<polygon fill="none" stroke="#000000" points="717.8078,-32.7319 718.2479,-24.744 726.2358,-25.1841 725.7957,-33.172 717.8078,-32.7319"/>
<polyline fill="none" stroke="#000000" points="726.0158,-29.1781 728.0127,-29.2881 "/>
<polygon fill="none" stroke="#000000" points="789.804,-285.8165 787.9096,-278.044 795.6821,-276.1497 797.5765,-283.9222 789.804,-285.8165"/>
<polyline fill="none" stroke="#000000" points="796.6293,-280.0359 798.5724,-279.5623 "/>
<text text-anchor="middle" x="1126.4728" y="-144.8" font-family="Times,serif" font-size="14.00" fill="#000000">conn4</text>
</g>
<!-- thermostat_monitor_temperature_manage_monitor_interface -->
<g id="node5" class="node">
<title>thermostat_monitor_temperature_manage_monitor_interface</title>
<path fill="none" stroke="#000000" d="M1052.9728,-210C1052.9728,-210 195.9728,-210 195.9728,-210 189.9728,-210 183.9728,-204 183.9728,-198 183.9728,-198 183.9728,-186 183.9728,-186 183.9728,-180 189.9728,-174 195.9728,-174 195.9728,-174 1052.9728,-174 1052.9728,-174 1058.9728,-174 1064.9728,-180 1064.9728,-186 1064.9728,-186 1064.9728,-198 1064.9728,-198 1064.9728,-204 1058.9728,-210 1052.9728,-210"/>
<text text-anchor="middle" x="624.4728" y="-188.3" font-family="Times,serif" font-size="14.00" fill="#000000">thermostat_monitor_temperature_manage_monitor_interface::Manage_Monitor_Interface_impl_thermostat_monitor_temperature_manage_monitor_interface</text>
</g>
<!-- thermostat_monitor_temperature_manage_monitor_interface&#45;&gt;thermostat_monitor_temperature_manage_alarm -->
<g id="edge21" class="edge">
<title>thermostat_monitor_temperature_manage_monitor_interface&#45;&gt;thermostat_monitor_temperature_manage_alarm</title>
<path fill="none" stroke="#000000" d="M805.6511,-172.7618C909.9918,-159.8077 1023.605,-141.7239 1039.4728,-123 1049.8172,-110.7937 1050.1859,-98.884 1039.4728,-87 1016.6914,-61.7286 875.101,-45.1232 728.49,-34.5509"/>
<polygon fill="none" stroke="#000000" points="796.0743,-177.9694 795.098,-170.0292 803.0383,-169.0529 804.0146,-176.9931 796.0743,-177.9694"/>
<polyline fill="none" stroke="#000000" points="803.5264,-173.023 805.5115,-172.7789 "/>
<polygon fill="none" stroke="#000000" points="718.0936,-37.8216 718.6612,-29.8417 726.641,-30.4093 726.0734,-38.3892 718.0936,-37.8216"/>
<polyline fill="none" stroke="#000000" points="726.3572,-34.3993 728.3522,-34.5412 "/>
<text text-anchor="middle" x="1066.4728" y="-101.3" font-family="Times,serif" font-size="14.00" fill="#000000">conn15</text>
</g>
<!-- thermostat_monitor_temperature_manage_monitor_interface&#45;&gt;thermostat_monitor_temperature_manage_alarm -->
<g id="edge22" class="edge">
<title>thermostat_monitor_temperature_manage_monitor_interface&#45;&gt;thermostat_monitor_temperature_manage_alarm</title>
<path fill="none" stroke="#000000" d="M401.4561,-172.9301C285.8725,-160.7274 165.1175,-143.3808 147.4728,-123 110.4984,-80.2922 169.4242,-53.9137 236.6124,-38.2776"/>
<polygon fill="none" stroke="#000000" points="411.962,-170.0055 411.131,-177.9622 403.1743,-177.1312 404.0053,-169.1745 411.962,-170.0055"/>
<polyline fill="none" stroke="#000000" points="403.5898,-173.1528 401.6006,-172.9451 "/>
<polygon fill="none" stroke="#000000" points="245.7013,-32.1445 247.4486,-39.9513 239.6417,-41.6986 237.8944,-33.8918 245.7013,-32.1445"/>
<polyline fill="none" stroke="#000000" points="238.7681,-37.7952 236.8164,-38.232 "/>
<text text-anchor="middle" x="167.4728" y="-101.3" font-family="Times,serif" font-size="14.00" fill="#000000">conn16</text>
</g>
<!-- thermostat_monitor_temperature_manage_monitor_mode -->
<g id="node6" class="node">
<title>thermostat_monitor_temperature_manage_monitor_mode</title>
<path fill="none" stroke="#000000" d="M1017.9728,-123C1017.9728,-123 208.9728,-123 208.9728,-123 202.9728,-123 196.9728,-117 196.9728,-111 196.9728,-111 196.9728,-99 196.9728,-99 196.9728,-93 202.9728,-87 208.9728,-87 208.9728,-87 1017.9728,-87 1017.9728,-87 1023.9728,-87 1029.9728,-93 1029.9728,-99 1029.9728,-99 1029.9728,-111 1029.9728,-111 1029.9728,-117 1023.9728,-123 1017.9728,-123"/>
<text text-anchor="middle" x="613.4728" y="-101.3" font-family="Times,serif" font-size="14.00" fill="#000000">thermostat_monitor_temperature_manage_monitor_mode::Manage_Monitor_Mode_impl_thermostat_monitor_temperature_manage_monitor_mode</text>
</g>
<!-- thermostat_monitor_temperature_manage_monitor_interface&#45;&gt;thermostat_monitor_temperature_manage_monitor_mode -->
<g id="edge23" class="edge">
<title>thermostat_monitor_temperature_manage_monitor_interface&#45;&gt;thermostat_monitor_temperature_manage_monitor_mode</title>
<path fill="none" stroke="#000000" d="M629.4391,-163.8513C630.0086,-156.3747 629.9408,-148.34 628.4728,-141 627.9313,-138.2924 627.1816,-135.5339 626.3039,-132.8093"/>
<polygon fill="none" stroke="#000000" points="632.2634,-174.3724 624.315,-173.4645 625.223,-165.5161 633.1713,-166.4241 632.2634,-174.3724"/>
<polyline fill="none" stroke="#000000" points="629.1972,-165.9701 629.4242,-163.9831 "/>
<polygon fill="none" stroke="#000000" points="618.9629,-124.6504 626.4511,-121.8349 629.2666,-129.3232 621.7784,-132.1386 618.9629,-124.6504"/>
<polyline fill="none" stroke="#000000" points="625.5225,-130.7309 626.2264,-132.603 "/>
<text text-anchor="middle" x="650.4728" y="-144.8" font-family="Times,serif" font-size="14.00" fill="#000000">conn17</text>
</g>
<!-- thermostat_monitor_temperature_manage_monitor_interface&#45;&gt;operator_interface_oip_oit -->
<g id="edge5" class="edge">
<title>thermostat_monitor_temperature_manage_monitor_interface&#45;&gt;operator_interface_oip_oit</title>
<path fill="none" stroke="#000000" d="M692.3419,-215.9193C696.9106,-219.4248 701.0484,-223.4291 704.4728,-228 713.6982,-240.3141 716.4045,-257.2299 716.7087,-271.5712"/>
<polygon fill="none" stroke="#000000" points="681.4861,-213.4555 685.9418,-206.8112 692.5861,-211.2669 688.1304,-217.9112 681.4861,-213.4555"/>
<polyline fill="none" stroke="#000000" points="690.3582,-214.5891 692.0193,-215.703 "/>
<polygon fill="none" stroke="#000000" points="720.5408,-281.9821 712.5418,-281.8526 712.6713,-273.8537 720.6703,-273.9832 720.5408,-281.9821"/>
<polyline fill="none" stroke="#000000" points="716.6708,-273.9184 716.7032,-271.9187 "/>
<text text-anchor="middle" x="733.4728" y="-242.3" font-family="Times,serif" font-size="14.00" fill="#000000">conn5</text>
</g>
<!-- thermostat_monitor_temperature_manage_monitor_mode&#45;&gt;thermostat_monitor_temperature_manage_alarm -->
<g id="edge25" class="edge">
<title>thermostat_monitor_temperature_manage_monitor_mode&#45;&gt;thermostat_monitor_temperature_manage_alarm</title>
<path fill="none" stroke="#000000" d="M554.5455,-83.4593C517.8871,-70.059 470.9192,-52.8901 434.2828,-39.4978"/>
<polygon fill="none" stroke="#000000" points="565.5324,-83.2167 562.7857,-90.7304 555.272,-87.9837 558.0187,-80.47 565.5324,-83.2167"/>
<polyline fill="none" stroke="#000000" points="556.6453,-84.2269 554.7669,-83.5402 "/>
<polygon fill="none" stroke="#000000" points="423.3501,-39.7602 426.0967,-32.2465 433.6105,-34.9932 430.8638,-42.5069 423.3501,-39.7602"/>
<polyline fill="none" stroke="#000000" points="432.2371,-38.75 434.1156,-39.4367 "/>
<text text-anchor="middle" x="529.4728" y="-57.8" font-family="Times,serif" font-size="14.00" fill="#000000">conn18</text>
</g>
<!-- thermostat_monitor_temperature_manage_monitor_mode&#45;&gt;thermostat_monitor_temperature_manage_monitor_interface -->
<g id="edge24" class="edge">
<title>thermostat_monitor_temperature_manage_monitor_mode&#45;&gt;thermostat_monitor_temperature_manage_monitor_interface</title>
<path fill="none" stroke="#000000" d="M587.4158,-131.9481C583.0248,-139.5683 580.8987,-147.9749 584.4728,-156 586.0942,-159.6406 588.2858,-163.0674 590.8126,-166.2507"/>
<polygon fill="none" stroke="#000000" points="590.1333,-121.1326 596.6766,-125.7355 592.0738,-132.2787 585.5305,-127.6759 590.1333,-121.1326"/>
<polyline fill="none" stroke="#000000" points="588.8021,-129.9773 587.6514,-131.6131 "/>
<polygon fill="none" stroke="#000000" points="600.587,-170.929 594.7134,-176.3605 589.2818,-170.4869 595.1554,-165.0554 600.587,-170.929"/>
<polyline fill="none" stroke="#000000" points="592.2186,-167.7712 590.8608,-166.3028 "/>
<text text-anchor="middle" x="604.4728" y="-144.8" font-family="Times,serif" font-size="14.00" fill="#000000">conn18</text>
</g>
<!-- operator_interface_oip_oit&#45;&gt;thermostat_regulate_temperature_manage_regulator_interface -->
<g id="edge6" class="edge">
<title>operator_interface_oip_oit&#45;&gt;thermostat_regulate_temperature_manage_regulator_interface</title>
<path fill="none" stroke="#000000" d="M711.5726,-328.4136C711.4799,-342.4833 713.504,-359.1599 721.4728,-372 751.8182,-420.8954 809.6317,-453.4082 854.8134,-472.5978"/>
<polygon fill="none" stroke="#000000" points="707.9961,-318.1037 715.9893,-318.4348 715.6582,-326.428 707.665,-326.0969 707.9961,-318.1037"/>
<polyline fill="none" stroke="#000000" points="711.6616,-326.2624 711.5788,-328.2607 "/>
<polygon fill="none" stroke="#000000" points="865.7744,-472.794 862.7226,-480.189 855.3275,-477.1372 858.3794,-469.7421 865.7744,-472.794"/>
<polyline fill="none" stroke="#000000" points="856.8535,-473.4396 855.0047,-472.6767 "/>
<text text-anchor="middle" x="738.4728" y="-350.3" font-family="Times,serif" font-size="14.00" fill="#000000">conn6</text>
</g>
<!-- operator_interface_oip_oit&#45;&gt;thermostat_regulate_temperature_manage_regulator_interface -->
<g id="edge7" class="edge">
<title>operator_interface_oip_oit&#45;&gt;thermostat_regulate_temperature_manage_regulator_interface</title>
<path fill="none" stroke="#000000" d="M745.2434,-325.1584C748.8562,-328.6416 752.359,-332.2986 755.4728,-336 767.5439,-350.349 765.3681,-357.6793 777.4728,-372 809.9215,-410.389 854.739,-447.2319 885.0685,-470.339"/>
<polygon fill="none" stroke="#000000" points="735.0583,-321.2417 740.467,-315.3471 746.3617,-320.7557 740.953,-326.6504 735.0583,-321.2417"/>
<polyline fill="none" stroke="#000000" points="743.6573,-323.7031 745.131,-325.0552 "/>
<polygon fill="none" stroke="#000000" points="895.6245,-473.2881 890.8085,-479.676 884.4205,-474.8599 889.2366,-468.472 895.6245,-473.2881"/>
<polyline fill="none" stroke="#000000" points="886.8286,-471.666 885.2316,-470.4619 "/>
<text text-anchor="middle" x="794.4728" y="-350.3" font-family="Times,serif" font-size="14.00" fill="#000000">conn7</text>
</g>
<!-- operator_interface_oip_oit&#45;&gt;thermostat_monitor_temperature_manage_monitor_interface -->
<g id="edge8" class="edge">
<title>operator_interface_oip_oit&#45;&gt;thermostat_monitor_temperature_manage_monitor_interface</title>
<path fill="none" stroke="#000000" d="M677.9598,-275.4018C673.8351,-271.8369 669.8929,-268.0076 666.4728,-264 654.7287,-250.2383 656.573,-243.6363 647.4728,-228 645.7031,-224.9592 643.7995,-221.8092 641.8724,-218.6949"/>
<polygon fill="none" stroke="#000000" points="688.5385,-278.7957 683.5159,-285.0225 677.289,-279.9998 682.3117,-273.773 688.5385,-278.7957"/>
<polyline fill="none" stroke="#000000" points="679.8004,-276.8864 678.2436,-275.6308 "/>
<polygon fill="none" stroke="#000000" points="633.0877,-212.2671 639.8538,-207.9985 644.1224,-214.7646 637.3563,-219.0331 633.0877,-212.2671"/>
<polyline fill="none" stroke="#000000" points="640.7393,-216.8988 641.8065,-218.5904 "/>
<text text-anchor="middle" x="683.4728" y="-242.3" font-family="Times,serif" font-size="14.00" fill="#000000">conn8</text>
</g>
<!-- operator_interface_oip_oit&#45;&gt;thermostat_monitor_temperature_manage_monitor_interface -->
<g id="edge9" class="edge">
<title>operator_interface_oip_oit&#45;&gt;thermostat_monitor_temperature_manage_monitor_interface</title>
<path fill="none" stroke="#000000" d="M632.5384,-278.3421C621.7358,-273.9605 613.1262,-269.1148 609.4728,-264 600.3073,-251.1683 603.476,-233.9605 609.2115,-219.5853"/>
<polygon fill="none" stroke="#000000" points="643.4701,-278.1631 640.6654,-285.6554 633.1732,-282.8508 635.9778,-275.3585 643.4701,-278.1631"/>
<polyline fill="none" stroke="#000000" points="634.5755,-279.1046 632.7024,-278.4035 "/>
<polygon fill="none" stroke="#000000" points="609.8283,-208.5245 617.1162,-211.8241 613.8166,-219.112 606.5287,-215.8124 609.8283,-208.5245"/>
<polyline fill="none" stroke="#000000" points="610.1727,-217.4622 609.3478,-219.2842 "/>
<text text-anchor="middle" x="626.4728" y="-242.3" font-family="Times,serif" font-size="14.00" fill="#000000">conn9</text>
</g>
<!-- temperature_sensor_cpi_thermostat -->
<g id="node8" class="node">
<title>temperature_sensor_cpi_thermostat</title>
<path fill="none" stroke="#000000" d="M1616.9728,-707.2814C1616.9728,-707.2814 1075.9728,-707.2814 1075.9728,-707.2814 1069.9728,-707.2814 1063.9728,-701.2814 1063.9728,-695.2814 1063.9728,-695.2814 1063.9728,-683.2814 1063.9728,-683.2814 1063.9728,-677.2814 1069.9728,-671.2814 1075.9728,-671.2814 1075.9728,-671.2814 1616.9728,-671.2814 1616.9728,-671.2814 1622.9728,-671.2814 1628.9728,-677.2814 1628.9728,-683.2814 1628.9728,-683.2814 1628.9728,-695.2814 1628.9728,-695.2814 1628.9728,-701.2814 1622.9728,-707.2814 1616.9728,-707.2814"/>
<text text-anchor="middle" x="1346.4728" y="-685.5814" font-family="Times,serif" font-size="14.00" fill="#000000">temperature_sensor_cpi_thermostat::Temperature_Sensor_impl_temperature_sensor_cpi_thermostat</text>
</g>
<!-- temperature_sensor_cpi_thermostat&#45;&gt;thermostat_regulate_temperature_manage_regulator_interface -->
<g id="edge13" class="edge">
<title>temperature_sensor_cpi_thermostat&#45;&gt;thermostat_regulate_temperature_manage_regulator_interface</title>
<path fill="none" stroke="#000000" d="M1297.3437,-666.9391C1214.8497,-629.4234 1049.4675,-554.2129 967.2261,-516.8121"/>
<polygon fill="none" stroke="#000000" points="1308.2479,-667.5037 1304.936,-674.7861 1297.6537,-671.4742 1300.9655,-664.1919 1308.2479,-667.5037"/>
<polyline fill="none" stroke="#000000" points="1299.3096,-667.8331 1297.489,-667.0051 "/>
<polygon fill="none" stroke="#000000" points="956.4415,-516.3019 959.7533,-509.0196 967.0357,-512.3314 963.7238,-519.6137 956.4415,-516.3019"/>
<polyline fill="none" stroke="#000000" points="965.3797,-515.9725 967.2003,-516.8005 "/>
<text text-anchor="middle" x="1284.4728" y="-631.5814" font-family="Times,serif" font-size="14.00" fill="#000000">conn10</text>
</g>
<!-- temperature_sensor_cpi_thermostat&#45;&gt;thermostat_regulate_temperature_manage_heat_source -->
<g id="edge14" class="edge">
<title>temperature_sensor_cpi_thermostat&#45;&gt;thermostat_regulate_temperature_manage_heat_source</title>
<path fill="none" stroke="#000000" d="M1468.4479,-669.2168C1640.4666,-633.4259 1946.8049,-540.2805 2067.4728,-318 2075.1063,-303.9384 2077.3975,-294.5499 2067.4728,-282 2040.6457,-248.0769 1946.1763,-225.6128 1858.1496,-211.6116"/>
<polygon fill="none" stroke="#000000" points="1459.3867,-675.1555 1457.7815,-667.3182 1465.6189,-665.7131 1467.224,-673.5504 1459.3867,-675.1555"/>
<polyline fill="none" stroke="#000000" points="1466.4214,-669.6318 1468.3808,-669.2305 "/>
<polygon fill="none" stroke="#000000" points="1847.389,-213.9826 1848.6211,-206.078 1856.5257,-207.3102 1855.2935,-215.2147 1847.389,-213.9826"/>
<polyline fill="none" stroke="#000000" points="1855.9096,-211.2625 1857.8857,-211.5705 "/>
<text text-anchor="middle" x="2074.4728" y="-350.3" font-family="Times,serif" font-size="14.00" fill="#000000">conn10</text>
</g>
<!-- temperature_sensor_cpi_thermostat&#45;&gt;thermostat_regulate_temperature_manage_regulator_mode -->
<g id="edge15" class="edge">
<title>temperature_sensor_cpi_thermostat&#45;&gt;thermostat_regulate_temperature_manage_regulator_mode</title>
<path fill="none" stroke="#000000" d="M1394.3456,-665.9328C1400.0962,-662.1192 1405.6352,-657.8893 1410.4728,-653.2814 1516.0243,-552.7437 1592.8095,-391.97 1620.8319,-327.7831"/>
<polygon fill="none" stroke="#000000" points="1387.9348,-674.617 1383.7175,-667.8188 1390.5157,-663.6015 1394.733,-670.3997 1387.9348,-674.617"/>
<polyline fill="none" stroke="#000000" points="1392.6243,-667.0006 1394.3239,-665.9463 "/>
<polygon fill="none" stroke="#000000" points="1621.2347,-316.7504 1628.5804,-319.9191 1625.4117,-327.2649 1618.066,-324.0961 1621.2347,-316.7504"/>
<polyline fill="none" stroke="#000000" points="1621.7388,-325.6805 1620.9466,-327.5169 "/>
<text text-anchor="middle" x="1610.4728" y="-490.9407" font-family="Times,serif" font-size="14.00" fill="#000000">conn10</text>
</g>
<!-- temperature_sensor_cpi_thermostat&#45;&gt;thermostat_monitor_temperature_manage_alarm -->
<g id="edge11" class="edge">
<title>temperature_sensor_cpi_thermostat&#45;&gt;thermostat_monitor_temperature_manage_alarm</title>
<path fill="none" stroke="#000000" d="M1053.9154,-683.4784C828.2872,-677.904 545.925,-668.1173 492.4728,-653.2814 444.1786,-639.8772 427.3873,-636.1841 393.4728,-599.2814 306.9487,-505.1336 344.3242,-445.0006 277.4728,-336 239.6576,-274.3427 213.3537,-270.9908 174.4728,-210 143.4208,-161.29 116.9295,-142.6354 132.4728,-87 137.0874,-70.4825 138.2508,-63.5842 152.4728,-54 161.7305,-47.7612 177.9001,-42.5168 197.4494,-38.1331"/>
<polygon fill="none" stroke="#000000" points="1064.0377,-679.7255 1063.8415,-687.7231 1055.8439,-687.5269 1056.0401,-679.5293 1064.0377,-679.7255"/>
<polyline fill="none" stroke="#000000" points="1055.942,-683.5281 1053.9426,-683.479 "/>
<polygon fill="none" stroke="#000000" points="206.4747,-32.1362 208.1298,-39.9631 200.3029,-41.6182 198.6478,-33.7913 206.4747,-32.1362"/>
<polyline fill="none" stroke="#000000" points="199.4754,-37.7048 197.5186,-38.1186 "/>
<text text-anchor="middle" x="238.4728" y="-242.3" font-family="Times,serif" font-size="14.00" fill="#000000">conn10</text>
</g>
<!-- temperature_sensor_cpi_thermostat&#45;&gt;thermostat_monitor_temperature_manage_monitor_interface -->
<g id="edge10" class="edge">
<title>temperature_sensor_cpi_thermostat&#45;&gt;thermostat_monitor_temperature_manage_monitor_interface</title>
<path fill="none" stroke="#000000" d="M1053.7669,-678.7877C811.0068,-666.9856 499.3447,-643.4036 459.4728,-599.2814 364.9276,-494.6577 387.4902,-403.2578 459.4728,-282 478.9609,-249.1714 515.1005,-227.5513 548.6004,-213.7514"/>
<polygon fill="none" stroke="#000000" points="1064.0136,-675.2764 1063.6289,-683.2671 1055.6381,-682.8824 1056.0229,-674.8916 1064.0136,-675.2764"/>
<polyline fill="none" stroke="#000000" points="1055.8305,-678.887 1053.8328,-678.7908 "/>
<polygon fill="none" stroke="#000000" points="556.4972,-206.342 559.429,-213.7855 551.9855,-216.7173 549.0537,-209.2738 556.4972,-206.342"/>
<polyline fill="none" stroke="#000000" points="550.5196,-212.9956 548.6588,-213.7285 "/>
<text text-anchor="middle" x="450.4728" y="-350.3" font-family="Times,serif" font-size="14.00" fill="#000000">conn10</text>
</g>
<!-- temperature_sensor_cpi_thermostat&#45;&gt;thermostat_monitor_temperature_manage_monitor_mode -->
<g id="edge12" class="edge">
<title>temperature_sensor_cpi_thermostat&#45;&gt;thermostat_monitor_temperature_manage_monitor_mode</title>
<path fill="none" stroke="#000000" d="M1358.6991,-661.5645C1365.7323,-644.0797 1373.8692,-620.809 1377.4728,-599.2814 1392.8293,-507.5439 1391.6022,-481.9345 1377.4728,-390 1373.6507,-365.1308 1380.0795,-351.7691 1360.4728,-336 1325.3548,-307.7557 1191.0627,-349.1274 1158.4728,-318 1101.0647,-263.1681 1192.4232,-195.2584 1134.4728,-141 1127.7961,-134.7486 1073.5506,-128.861 1002.392,-123.729"/>
<polygon fill="none" stroke="#000000" points="1358.4227,-672.667 1351.0336,-669.6007 1354.0998,-662.2116 1361.4889,-665.2779 1358.4227,-672.667"/>
<polyline fill="none" stroke="#000000" points="1357.7944,-663.7448 1358.5609,-661.8975 "/>
<polygon fill="none" stroke="#000000" points="991.9594,-126.9999 992.5249,-119.0199 1000.5049,-119.5853 999.9394,-127.5653 991.9594,-126.9999"/>
<polyline fill="none" stroke="#000000" points="1000.2222,-123.5753 1002.2172,-123.7167 "/>
<text text-anchor="middle" x="1178.4728" y="-296.3" font-family="Times,serif" font-size="14.00" fill="#000000">conn10</text>
</g>
<!-- dispatch_periodic_inst -->
<g id="node10" class="node">
<title>dispatch_periodic_inst</title>
<path fill="none" stroke="#000000" d="M1455.4728,-925.075C1455.4728,-925.075 1237.4728,-925.075 1237.4728,-925.075 1231.4728,-925.075 1225.4728,-919.075 1225.4728,-913.075 1225.4728,-913.075 1225.4728,-901.075 1225.4728,-901.075 1225.4728,-895.075 1231.4728,-889.075 1237.4728,-889.075 1237.4728,-889.075 1455.4728,-889.075 1455.4728,-889.075 1461.4728,-889.075 1467.4728,-895.075 1467.4728,-901.075 1467.4728,-901.075 1467.4728,-913.075 1467.4728,-913.075 1467.4728,-919.075 1461.4728,-925.075 1455.4728,-925.075"/>
<text text-anchor="middle" x="1346.4728" y="-903.375" font-family="Times,serif" font-size="14.00" fill="#000000">dispatch_periodic_inst::dispatch_periodic</text>
</g>
<!-- conn19 -->
<g id="node13" class="node">
<title>conn19</title>
<polygon fill="none" stroke="#000000" points="763.4728,-761.2814 712.0272,-743.2814 763.4728,-725.2814 814.9184,-743.2814 763.4728,-761.2814"/>
<text text-anchor="middle" x="763.4728" y="-739.5814" font-family="Times,serif" font-size="14.00" fill="#000000">conn19</text>
</g>
<!-- dispatch_periodic_inst&#45;&gt;conn19 -->
<g id="edge26" class="edge">
<title>dispatch_periodic_inst&#45;&gt;conn19</title>
<path fill="none" stroke="#000000" d="M1282.1342,-888.9991C1160.4367,-854.8082 899.9544,-781.6259 801.8816,-754.0724"/>
<polygon fill="#000000" stroke="#000000" points="802.6669,-750.6576 792.093,-751.3223 800.7735,-757.3966 802.6669,-750.6576"/>
</g>
<!-- conn20 -->
<g id="node14" class="node">
<title>conn20</title>
<polygon fill="none" stroke="#000000" points="2096.4728,-653.2814 2045.0272,-635.2814 2096.4728,-617.2814 2147.9184,-635.2814 2096.4728,-653.2814"/>
<text text-anchor="middle" x="2096.4728" y="-631.5814" font-family="Times,serif" font-size="14.00" fill="#000000">conn20</text>
</g>
<!-- dispatch_periodic_inst&#45;&gt;conn20 -->
<g id="edge28" class="edge">
<title>dispatch_periodic_inst&#45;&gt;conn20</title>
<path fill="none" stroke="#000000" d="M1436.4153,-889.0741C1479.2754,-879.6085 1530.9935,-866.8874 1576.4728,-852.075 1766.8861,-790.0582 1985.338,-688.5699 2065.1823,-650.4156"/>
<polygon fill="#000000" stroke="#000000" points="2067.1488,-653.3544 2074.6534,-645.8757 2064.1229,-647.0421 2067.1488,-653.3544"/>
</g>
<!-- conn21 -->
<g id="node15" class="node">
<title>conn21</title>
<polygon fill="none" stroke="#000000" points="1988.4728,-653.2814 1937.0272,-635.2814 1988.4728,-617.2814 2039.9184,-635.2814 1988.4728,-653.2814"/>
<text text-anchor="middle" x="1988.4728" y="-631.5814" font-family="Times,serif" font-size="14.00" fill="#000000">conn21</text>
</g>
<!-- dispatch_periodic_inst&#45;&gt;conn21 -->
<g id="edge30" class="edge">
<title>dispatch_periodic_inst&#45;&gt;conn21</title>
<path fill="none" stroke="#000000" d="M1389.0934,-889.0313C1509.2659,-838.1558 1849.0116,-694.323 1955.8753,-649.0817"/>
<polygon fill="#000000" stroke="#000000" points="1957.3447,-652.2604 1965.189,-645.1387 1954.6157,-645.8143 1957.3447,-652.2604"/>
</g>
<!-- conn22 -->
<g id="node16" class="node">
<title>conn22</title>
<polygon fill="none" stroke="#000000" points="51.4728,-264 .0272,-246 51.4728,-228 102.9184,-246 51.4728,-264"/>
<text text-anchor="middle" x="51.4728" y="-242.3" font-family="Times,serif" font-size="14.00" fill="#000000">conn22</text>
</g>
<!-- dispatch_periodic_inst&#45;&gt;conn22 -->
<g id="edge32" class="edge">
<title>dispatch_periodic_inst&#45;&gt;conn22</title>
<path fill="none" stroke="#000000" d="M1225.4549,-905.7956C980.1703,-902.7621 431.8957,-893.6239 245.4728,-871.075 156.4531,-860.3075 51.4728,-905.3468 51.4728,-815.6782 51.4728,-815.6782 51.4728,-815.6782 51.4728,-354 51.4728,-327.0527 51.4728,-296.3234 51.4728,-274.5515"/>
<polygon fill="#000000" stroke="#000000" points="54.9729,-274.3449 51.4728,-264.345 47.9729,-274.345 54.9729,-274.3449"/>
</g>
<!-- conn23 -->
<g id="node17" class="node">
<title>conn23</title>
<polygon fill="none" stroke="#000000" points="225.4728,-372 174.0272,-354 225.4728,-336 276.9184,-354 225.4728,-372"/>
<text text-anchor="middle" x="225.4728" y="-350.3" font-family="Times,serif" font-size="14.00" fill="#000000">conn23</text>
</g>
<!-- dispatch_periodic_inst&#45;&gt;conn23 -->
<g id="edge34" class="edge">
<title>dispatch_periodic_inst&#45;&gt;conn23</title>
<path fill="none" stroke="#000000" d="M1225.3679,-903.2911C938.1279,-893.5163 239.4728,-864.7021 239.4728,-815.6782 239.4728,-815.6782 239.4728,-815.6782 239.4728,-635.2814 239.4728,-542.356 231.7566,-432.3756 227.7812,-381.8801"/>
<polygon fill="#000000" stroke="#000000" points="231.2576,-381.4448 226.9711,-371.7558 224.2799,-382.0032 231.2576,-381.4448"/>
</g>
<!-- conn24 -->
<g id="node18" class="node">
<title>conn24</title>
<polygon fill="none" stroke="#000000" points="117.4728,-372 66.0272,-354 117.4728,-336 168.9184,-354 117.4728,-372"/>
<text text-anchor="middle" x="117.4728" y="-350.3" font-family="Times,serif" font-size="14.00" fill="#000000">conn24</text>
</g>
<!-- dispatch_periodic_inst&#45;&gt;conn24 -->
<g id="edge36" class="edge">
<title>dispatch_periodic_inst&#45;&gt;conn24</title>
<path fill="none" stroke="#000000" d="M1225.1491,-901.8336C1072.4076,-895.1458 801.9682,-883.0092 570.4728,-871.075 478.4358,-866.3302 159.4728,-907.8374 159.4728,-815.6782 159.4728,-815.6782 159.4728,-815.6782 159.4728,-635.2814 159.4728,-540.752 135.9824,-430.293 124.1367,-380.6003"/>
<polygon fill="#000000" stroke="#000000" points="127.4879,-379.5679 121.7311,-370.6735 120.6848,-381.2165 127.4879,-379.5679"/>
</g>
<!-- conn25 -->
<g id="node19" class="node">
<title>conn25</title>
<polygon fill="none" stroke="#000000" points="453.4728,-761.2814 402.0272,-743.2814 453.4728,-725.2814 504.9184,-743.2814 453.4728,-761.2814"/>
<text text-anchor="middle" x="453.4728" y="-739.5814" font-family="Times,serif" font-size="14.00" fill="#000000">conn25</text>
</g>
<!-- dispatch_periodic_inst&#45;&gt;conn25 -->
<g id="edge38" class="edge">
<title>dispatch_periodic_inst&#45;&gt;conn25</title>
<path fill="none" stroke="#000000" d="M1225.3654,-896.5926C1133.1154,-887.6126 1003.2062,-872.8237 890.4728,-852.075 741.2098,-824.6028 567.0432,-776.2388 491.5652,-754.4629"/>
<polygon fill="#000000" stroke="#000000" points="492.1618,-750.9919 481.5828,-751.5716 490.2143,-757.7155 492.1618,-750.9919"/>
</g>
<!-- conn26 -->
<g id="node20" class="node">
<title>conn26</title>
<polygon fill="none" stroke="#000000" points="1346.4728,-833.6782 1295.0272,-815.6782 1346.4728,-797.6782 1397.9184,-815.6782 1346.4728,-833.6782"/>
<text text-anchor="middle" x="1346.4728" y="-811.9782" font-family="Times,serif" font-size="14.00" fill="#000000">conn26</text>
</g>
<!-- dispatch_periodic_inst&#45;&gt;conn26 -->
<g id="edge40" class="edge">
<title>dispatch_periodic_inst&#45;&gt;conn26</title>
<path fill="none" stroke="#000000" d="M1346.4728,-889.0179C1346.4728,-876.1243 1346.4728,-858.5283 1346.4728,-843.8037"/>
<polygon fill="#000000" stroke="#000000" points="1349.9729,-843.6977 1346.4728,-833.6978 1342.9729,-843.6978 1349.9729,-843.6977"/>
</g>
<!-- conn27 -->
<g id="node21" class="node">
<title>conn27</title>
<polygon fill="none" stroke="#000000" points="2129.4728,-761.2814 2078.0272,-743.2814 2129.4728,-725.2814 2180.9184,-743.2814 2129.4728,-761.2814"/>
<text text-anchor="middle" x="2129.4728" y="-739.5814" font-family="Times,serif" font-size="14.00" fill="#000000">conn27</text>
</g>
<!-- dispatch_periodic_inst&#45;&gt;conn27 -->
<g id="edge42" class="edge">
<title>dispatch_periodic_inst&#45;&gt;conn27</title>
<path fill="none" stroke="#000000" d="M1467.6915,-903.5616C1631.9886,-898.2381 1910.0656,-887.0307 1954.4728,-871.075 2018.1731,-848.1871 2078.776,-794.347 2109.1702,-764.3679"/>
<polygon fill="#000000" stroke="#000000" points="2111.9927,-766.4942 2116.5754,-756.9417 2107.0359,-761.5514 2111.9927,-766.4942"/>
</g>
<!-- conn28 -->
<g id="node22" class="node">
<title>conn28</title>
<ellipse fill="none" stroke="#000000" cx="2229.4728" cy="-815.6782" rx="36.2938" ry="36.2938"/>
<text text-anchor="middle" x="2229.4728" y="-811.9782" font-family="Times,serif" font-size="14.00" fill="#000000">conn28</text>
</g>
<!-- dispatch_periodic_inst&#45;&gt;conn28 -->
<g id="edge44" class="edge">
<title>dispatch_periodic_inst&#45;&gt;conn28</title>
<path fill="none" stroke="#000000" d="M1467.6423,-905.4612C1644.2635,-902.3645 1963.6551,-893.7483 2076.4728,-871.075 2114.9597,-863.3401 2156.7454,-847.6799 2186.9084,-834.9773"/>
<polygon fill="#000000" stroke="#000000" points="2188.4567,-838.1218 2196.2742,-830.9709 2185.7036,-831.686 2188.4567,-838.1218"/>
</g>
<!-- time_server -->
<g id="node11" class="node">
<title>time_server</title>
<path fill="none" stroke="#000000" d="M2397.9728,-707.2814C2397.9728,-707.2814 2268.9728,-707.2814 2268.9728,-707.2814 2262.9728,-707.2814 2256.9728,-701.2814 2256.9728,-695.2814 2256.9728,-695.2814 2256.9728,-683.2814 2256.9728,-683.2814 2256.9728,-677.2814 2262.9728,-671.2814 2268.9728,-671.2814 2268.9728,-671.2814 2397.9728,-671.2814 2397.9728,-671.2814 2403.9728,-671.2814 2409.9728,-677.2814 2409.9728,-683.2814 2409.9728,-683.2814 2409.9728,-695.2814 2409.9728,-695.2814 2409.9728,-701.2814 2403.9728,-707.2814 2397.9728,-707.2814"/>
<text text-anchor="middle" x="2333.4728" y="-685.5814" font-family="Times,serif" font-size="14.00" fill="#000000">time_server::TimeServer</text>
</g>
<!-- conn29 -->
<g id="node23" class="node">
<title>conn29</title>
<polygon fill="none" stroke="#000000" points="2726.4728,-512.6407 2675.0272,-494.6407 2726.4728,-476.6407 2777.9184,-494.6407 2726.4728,-512.6407"/>
<text text-anchor="middle" x="2726.4728" y="-490.9407" font-family="Times,serif" font-size="14.00" fill="#000000">conn29</text>
</g>
<!-- time_server&#45;&gt;conn29 -->
<g id="edge46" class="edge">
<title>time_server&#45;&gt;conn29</title>
<path fill="none" stroke="#000000" d="M2376.3525,-671.261C2422.0845,-652.2987 2491.6791,-624.2479 2519.4728,-617.2814 2583.3191,-601.2785 2611.6334,-635.6832 2666.4728,-599.2814 2693.9524,-581.0408 2710.33,-545.6368 2718.8649,-521.0927"/>
<polygon fill="#000000" stroke="#000000" points="2722.2788,-521.9128 2722.052,-511.3204 2715.6238,-519.7423 2722.2788,-521.9128"/>
</g>
<!-- time_server.pit_command -->
<g id="node24" class="node">
<title>time_server.pit_command</title>
<ellipse fill="none" stroke="#000000" cx="2333.4728" cy="-494.6407" rx="104.7816" ry="104.7816"/>
<text text-anchor="middle" x="2333.4728" y="-490.9407" font-family="Times,serif" font-size="14.00" fill="#000000">time_server.pit_command</text>
</g>
<!-- time_server&#45;&gt;time_server.pit_command -->
<g id="edge48" class="edge">
<title>time_server&#45;&gt;time_server.pit_command</title>
<path fill="none" stroke="#000000" d="M2333.4728,-670.9701C2333.4728,-656.0651 2333.4728,-633.6444 2333.4728,-609.7424"/>
<polygon fill="#000000" stroke="#000000" points="2336.9729,-609.4255 2333.4728,-599.4255 2329.9729,-609.4256 2336.9729,-609.4255"/>
</g>
<!-- time_server.pit_channel0 -->
<g id="node25" class="node">
<title>time_server.pit_channel0</title>
<ellipse fill="none" stroke="#000000" cx="2556.4728" cy="-494.6407" rx="100.9827" ry="100.9827"/>
<text text-anchor="middle" x="2556.4728" y="-490.9407" font-family="Times,serif" font-size="14.00" fill="#000000">time_server.pit_channel0</text>
</g>
<!-- time_server&#45;&gt;time_server.pit_channel0 -->
<g id="edge50" class="edge">
<title>time_server&#45;&gt;time_server.pit_channel0</title>
<path fill="none" stroke="#000000" d="M2358.0404,-670.9797C2381.508,-653.2445 2417.6219,-625.2859 2447.4728,-599.2814 2457.2452,-590.7683 2467.3054,-581.6436 2477.1783,-572.4605"/>
<polygon fill="#000000" stroke="#000000" points="2479.7744,-574.8247 2484.6839,-565.436 2474.9911,-569.7139 2479.7744,-574.8247"/>
</g>
<!-- time_server.pit -->
<g id="node12" class="node">
<title>time_server.pit</title>
<path fill="none" stroke="#000000" d="M2384.9728,-318C2384.9728,-318 2281.9728,-318 2281.9728,-318 2275.9728,-318 2269.9728,-312 2269.9728,-306 2269.9728,-306 2269.9728,-294 2269.9728,-294 2269.9728,-288 2275.9728,-282 2281.9728,-282 2281.9728,-282 2384.9728,-282 2384.9728,-282 2390.9728,-282 2396.9728,-288 2396.9728,-294 2396.9728,-294 2396.9728,-306 2396.9728,-306 2396.9728,-312 2390.9728,-318 2384.9728,-318"/>
<text text-anchor="middle" x="2333.4728" y="-296.3" font-family="Times,serif" font-size="14.00" fill="#000000">time_server.pit::PIT</text>
</g>
<!-- time_server.pit_irq -->
<g id="node26" class="node">
<title>time_server.pit_irq</title>
<polygon fill="none" stroke="#000000" points="2309.4728,-210 2198.0363,-192 2309.4728,-174 2420.9093,-192 2309.4728,-210"/>
<text text-anchor="middle" x="2309.4728" y="-188.3" font-family="Times,serif" font-size="14.00" fill="#000000">time_server.pit_irq</text>
</g>
<!-- time_server.pit&#45;&gt;time_server.pit_irq -->
<g id="edge52" class="edge">
<title>time_server.pit&#45;&gt;time_server.pit_irq</title>
<path fill="none" stroke="#000000" d="M2329.4015,-281.6793C2325.6152,-264.6409 2319.9227,-239.0246 2315.5899,-219.5268"/>
<polygon fill="#000000" stroke="#000000" points="2318.9905,-218.6949 2313.4044,-209.6923 2312.1572,-220.2135 2318.9905,-218.6949"/>
</g>
<!-- conn19&#45;&gt;thermostat_regulate_temperature_manage_regulator_interface -->
<g id="edge27" class="edge">
<title>conn19&#45;&gt;thermostat_regulate_temperature_manage_regulator_interface</title>
<path fill="none" stroke="#000000" d="M772.7046,-728.4724C798.0965,-687.7404 869.2511,-573.5988 901.8189,-521.3558"/>
<polygon fill="#000000" stroke="#000000" points="904.9295,-522.982 907.2496,-512.6443 898.9892,-519.2788 904.9295,-522.982"/>
</g>
<!-- conn20&#45;&gt;thermostat_regulate_temperature_manage_heat_source -->
<g id="edge29" class="edge">
<title>conn20&#45;&gt;thermostat_regulate_temperature_manage_heat_source</title>
<path fill="none" stroke="#000000" d="M2099.5544,-618.2297C2111.7411,-548.4634 2153.3899,-285.7303 2100.4728,-228 2094.4095,-221.3852 2075.0355,-215.9814 2047.767,-211.5678"/>
<polygon fill="#000000" stroke="#000000" points="2048.2149,-208.0957 2037.8015,-210.0476 2047.1593,-215.0157 2048.2149,-208.0957"/>
</g>
<!-- conn21&#45;&gt;thermostat_regulate_temperature_manage_regulator_mode -->
<g id="edge31" class="edge">
<title>conn21&#45;&gt;thermostat_regulate_temperature_manage_regulator_mode</title>
<path fill="none" stroke="#000000" d="M1993.8811,-618.8787C2009.2831,-568.7118 2047.5509,-415.9048 1971.4728,-336 1965.2585,-329.4731 1942.8114,-324.0141 1912.2075,-319.4844"/>
<polygon fill="#000000" stroke="#000000" points="1912.3852,-315.9749 1901.9948,-318.0461 1911.409,-322.9065 1912.3852,-315.9749"/>
</g>
<!-- conn22&#45;&gt;thermostat_monitor_temperature_manage_alarm -->
<g id="edge33" class="edge">
<title>conn22&#45;&gt;thermostat_monitor_temperature_manage_alarm</title>
<path fill="none" stroke="#000000" d="M47.8848,-229.2253C40.9687,-191.8147 30.4164,-101.1479 78.4728,-54 84.9265,-47.6683 109.8397,-42.1178 142.6938,-37.3918"/>
<polygon fill="#000000" stroke="#000000" points="143.2185,-40.8527 152.6451,-36.0165 142.2601,-33.9186 143.2185,-40.8527"/>
</g>
<!-- conn23&#45;&gt;thermostat_monitor_temperature_manage_monitor_interface -->
<g id="edge35" class="edge">
<title>conn23&#45;&gt;thermostat_monitor_temperature_manage_monitor_interface</title>
<path fill="none" stroke="#000000" d="M223.5754,-336.64C221.6298,-309.0403 222.4274,-255.4732 253.4728,-228 260.916,-221.4133 286.1532,-215.9147 320.2152,-211.3612"/>
<polygon fill="#000000" stroke="#000000" points="321.076,-214.7798 330.5516,-210.0403 320.1886,-207.8363 321.076,-214.7798"/>
</g>
<!-- conn24&#45;&gt;thermostat_monitor_temperature_manage_monitor_mode -->
<g id="edge37" class="edge">
<title>conn24&#45;&gt;thermostat_monitor_temperature_manage_monitor_mode</title>
<path fill="none" stroke="#000000" d="M117.3692,-335.8733C118.2218,-299.1436 125.7503,-215.8793 174.4728,-174 202.1198,-150.2362 269.1829,-134.6144 342.7921,-124.3617"/>
<polygon fill="#000000" stroke="#000000" points="343.3041,-127.8244 352.7434,-123.0129 342.3639,-120.8878 343.3041,-127.8244"/>
</g>
<!-- conn25&#45;&gt;operator_interface_oip_oit -->
<g id="edge39" class="edge">
<title>conn25&#45;&gt;operator_interface_oip_oit</title>
<path fill="none" stroke="#000000" d="M445.2421,-727.9157C414.7506,-668.6744 315.1848,-452.6112 418.4728,-336 424.1253,-329.6184 446.4664,-324.1374 476.5337,-319.5161"/>
<polygon fill="#000000" stroke="#000000" points="477.1699,-322.9603 486.5559,-318.0458 476.1538,-316.0344 477.1699,-322.9603"/>
</g>
<!-- conn26&#45;&gt;temperature_sensor_cpi_thermostat -->
<g id="edge41" class="edge">
<title>conn26&#45;&gt;temperature_sensor_cpi_thermostat</title>
<path fill="none" stroke="#000000" d="M1346.4728,-797.5686C1346.4728,-776.638 1346.4728,-741.9395 1346.4728,-717.4705"/>
<polygon fill="#000000" stroke="#000000" points="1349.9729,-717.3574 1346.4728,-707.3574 1342.9729,-717.3574 1349.9729,-717.3574"/>
</g>
<!-- conn27&#45;&gt;heat_source_cpi_heat_controller -->
<g id="edge43" class="edge">
<title>conn27&#45;&gt;heat_source_cpi_heat_controller</title>
<path fill="none" stroke="#000000" d="M2137.2933,-727.9916C2147.0519,-707.4617 2162.4728,-669.5915 2162.4728,-635.2814 2162.4728,-635.2814 2162.4728,-635.2814 2162.4728,-192 2162.4728,-162.0944 2137.5537,-141.2622 2110.7158,-127.498"/>
<polygon fill="#000000" stroke="#000000" points="2112.1026,-124.2812 2101.574,-123.0982 2109.0669,-130.5887 2112.1026,-124.2812"/>
</g>
<!-- conn28&#45;&gt;time_server -->
<g id="edge45" class="edge">
<title>conn28&#45;&gt;time_server</title>
<path fill="none" stroke="#000000" d="M2252.8124,-787.3123C2270.5767,-765.7224 2294.8306,-736.2453 2312.0923,-715.2663"/>
<polygon fill="#000000" stroke="#000000" points="2314.9142,-717.3453 2318.5652,-707.3994 2309.5087,-712.8977 2314.9142,-717.3453"/>
</g>
<!-- conn29&#45;&gt;dispatch_periodic_inst -->
<g id="edge47" class="edge">
<title>conn29&#45;&gt;dispatch_periodic_inst</title>
<path fill="none" stroke="#000000" d="M2720.148,-510.7048C2710.9045,-532.6662 2691.9904,-572.3973 2666.4728,-599.2814 2523.7554,-749.6418 2470.024,-783.2545 2274.4728,-852.075 2201.4,-877.7915 1715.9738,-895.8698 1477.7997,-903.3024"/>
<polygon fill="#000000" stroke="#000000" points="1477.5782,-899.8075 1467.6916,-903.616 1477.7954,-906.8041 1477.5782,-899.8075"/>
</g>
<!-- time_server.pit_command&#45;&gt;time_server.pit -->
<g id="edge49" class="edge">
<title>time_server.pit_command&#45;&gt;time_server.pit</title>
<path fill="none" stroke="#000000" d="M2333.4728,-389.9137C2333.4728,-367.1795 2333.4728,-344.9875 2333.4728,-328.3386"/>
<polygon fill="#000000" stroke="#000000" points="2336.9729,-328.2484 2333.4728,-318.2484 2329.9729,-328.2485 2336.9729,-328.2484"/>
</g>
<!-- time_server.pit_channel0&#45;&gt;time_server.pit -->
<g id="edge51" class="edge">
<title>time_server.pit_channel0&#45;&gt;time_server.pit</title>
<path fill="none" stroke="#000000" d="M2484.6839,-423.8455C2472.4528,-412.3293 2459.7361,-400.6832 2447.4728,-390 2420.8869,-366.8398 2389.333,-342.1295 2366.1699,-324.472"/>
<polygon fill="#000000" stroke="#000000" points="2368.1219,-321.5597 2358.0404,-318.3017 2363.8898,-327.1355 2368.1219,-321.5597"/>
</g>
<!-- time_server.pit_irq&#45;&gt;time_server -->
<g id="edge53" class="edge">
<title>time_server.pit_irq&#45;&gt;time_server</title>
<path fill="none" stroke="#000000" d="M2298.5717,-208.4134C2262.2289,-265.3451 2151.2611,-458.5233 2219.4728,-599.2814 2233.5886,-628.41 2262.2112,-650.9555 2287.2433,-666.196"/>
<polygon fill="#000000" stroke="#000000" points="2285.5209,-669.2434 2295.918,-671.2809 2289.0609,-663.2044 2285.5209,-669.2434"/>
</g>
</g>
</svg>
